<svg width="32" height="32" viewBox="0 0 32 32" fill="none" xmlns="http://www.w3.org/2000/svg">
<g clip-path="url(#clip0_350_141)">
<path d="M16 0.5C7.44375 0.5 0.5 7.44375 0.5 16C0.5 24.5562 7.44375 31.5 16 31.5C24.5562 31.5 31.5 24.5562 31.5 16C31.5 7.44375 24.5562 0.5 16 0.5ZM22.2938 23.3062C22.0313 23.3062 21.8688 23.225 21.625 23.0812C17.725 20.7312 13.1875 20.6312 8.70625 21.55C8.4625 21.6125 8.14375 21.7125 7.9625 21.7125C7.35625 21.7125 6.975 21.2313 6.975 20.725C6.975 20.0813 7.35625 19.775 7.825 19.675C12.9437 18.5437 18.175 18.6437 22.6375 21.3125C23.0188 21.5563 23.2437 21.775 23.2437 22.3438C23.2437 22.9125 22.8 23.3062 22.2938 23.3062ZM23.975 19.2062C23.65 19.2062 23.4312 19.0625 23.2062 18.9438C19.3 16.6313 13.475 15.7 8.29375 17.1063C7.99375 17.1875 7.83125 17.2687 7.55 17.2687C6.88125 17.2687 6.3375 16.725 6.3375 16.0562C6.3375 15.3875 6.6625 14.9437 7.30625 14.7625C9.04375 14.275 10.8187 13.9125 13.4187 13.9125C17.475 13.9125 21.3938 14.9188 24.4813 16.7563C24.9875 17.0563 25.1875 17.4437 25.1875 17.9875C25.1812 18.6625 24.6563 19.2062 23.975 19.2062ZM25.9125 14.4438C25.5875 14.4438 25.3875 14.3625 25.1063 14.2C20.6563 11.5437 12.7 10.9062 7.55 12.3438C7.325 12.4062 7.04375 12.5063 6.74375 12.5063C5.91875 12.5063 5.2875 11.8625 5.2875 11.0312C5.2875 10.1812 5.8125 9.7 6.375 9.5375C8.575 8.89375 11.0375 8.5875 13.7188 8.5875C18.2812 8.5875 23.0625 9.5375 26.5562 11.575C27.0437 11.8562 27.3625 12.2438 27.3625 12.9875C27.3625 13.8375 26.675 14.4438 25.9125 14.4438Z" fill="black"/>
</g>
<defs>
<clipPath id="clip0_350_141">
<rect width="32" height="32" fill="white"/>
</clipPath>
</defs>
</svg>
